<svg width="28" height="28" viewBox="0 0 28 28" fill="none" xmlns="http://www.w3.org/2000/svg">
<path d="M18.0944 20.9227C17.3133 20.1416 17.3133 18.8752 18.0944 18.0943C18.8753 17.3131 20.1418 17.3131 20.9229 18.0943L26.5797 23.7511C27.3606 24.5322 27.3606 25.7984 26.5797 26.5795C25.7985 27.3605 24.5323 27.3605 23.7512 26.5795L18.0944 20.9227Z" fill="url(#paint0_linear_181_93)"/>
<path d="M0 14C0 6.26802 6.268 0 14 0C21.732 0 28 6.26802 28 14C28 21.732 21.732 28 14 28C6.268 28 0 21.732 0 14ZM23.94 14C23.94 8.51029 19.4898 4.06 14 4.06C8.51024 4.06 4.06 8.51029 4.06 14C4.06 19.4898 8.51024 23.94 14 23.94C19.4898 23.94 23.94 19.4898 23.94 14Z" fill="url(#paint1_linear_181_93)"/>
<defs>
<linearGradient id="paint0_linear_181_93" x1="26.5797" y1="26.5795" x2="21.7309" y2="21.7307" gradientUnits="userSpaceOnUse">
<stop stop-color="#0EA5E9"/>
<stop offset="1" stop-color="#1D4ED8"/>
</linearGradient>
<linearGradient id="paint1_linear_181_93" x1="14" y1="28" x2="14" y2="0" gradientUnits="userSpaceOnUse">
<stop stop-color="#F59E0B"/>
<stop offset="1" stop-color="#F9F871"/>
</linearGradient>
</defs>
</svg>
