<svg width="63" height="25" viewBox="0 0 63 25" fill="none" xmlns="http://www.w3.org/2000/svg">
<g clip-path="url(#clip0_180_71)">
<path d="M37.5 8.75C37.5 8.05964 38.0596 7.5 38.75 7.5C39.4404 7.5 40 8.05964 40 8.75V12.5H37.5V8.75Z" fill="url(#paint0_linear_180_71)"/>
<path d="M30 12.5C30 13.1566 30.1293 13.8068 30.3806 14.4134C30.6319 15.02 31.0002 15.5712 31.4645 16.0355C31.9288 16.4998 32.48 16.8681 33.0866 17.1194C33.6932 17.3707 34.3434 17.5 35 17.5C35.6566 17.5 36.3068 17.3707 36.9134 17.1194C37.52 16.8681 38.0712 16.4998 38.5355 16.0355C38.9998 15.5712 39.3681 15.02 39.6194 14.4134C39.8707 13.8068 40 13.1566 40 12.5H37.5C37.5 12.8283 37.4353 13.1534 37.3097 13.4567C37.1841 13.76 36.9999 14.0356 36.7678 14.2678C36.5356 14.4999 36.26 14.6841 35.9567 14.8097C35.6534 14.9353 35.3283 15 35 15C34.6717 15 34.3466 14.9353 34.0433 14.8097C33.74 14.6841 33.4644 14.4999 33.2322 14.2678C33.0001 14.0356 32.8159 13.76 32.6903 13.4567C32.5647 13.1534 32.5 12.8283 32.5 12.5H30Z" fill="url(#paint1_linear_180_71)"/>
<path d="M37.5 12.5C37.5 13.1566 37.6293 13.8068 37.8806 14.4134C38.1319 15.02 38.5002 15.5712 38.9645 16.0355C39.4288 16.4998 39.98 16.8681 40.5866 17.1194C41.1932 17.3707 41.8434 17.5 42.5 17.5C43.1566 17.5 43.8068 17.3707 44.4134 17.1194C45.02 16.8681 45.5712 16.4998 46.0355 16.0355C46.4998 15.5712 46.8681 15.02 47.1194 14.4134C47.3707 13.8068 47.5 13.1566 47.5 12.5H45C45 12.8283 44.9353 13.1534 44.8097 13.4567C44.6841 13.76 44.4999 14.0356 44.2678 14.2678C44.0356 14.4999 43.76 14.6841 43.4567 14.8097C43.1534 14.9353 42.8283 15 42.5 15C42.1717 15 41.8466 14.9353 41.5433 14.8097C41.24 14.6841 40.9644 14.4999 40.7322 14.2678C40.5001 14.0356 40.3159 13.76 40.1903 13.4567C40.0647 13.1534 40 12.8283 40 12.5H37.5Z" fill="url(#paint2_linear_180_71)"/>
<path d="M45 8.75C45 8.05964 45.5596 7.5 46.25 7.5C46.9404 7.5 47.5 8.05964 47.5 8.75V12.5H45V8.75Z" fill="url(#paint3_linear_180_71)"/>
<path d="M32.5 23.75C32.5 24.4404 31.9404 25 31.25 25C30.5596 25 30 24.4404 30 23.75V12.5H32.5V23.75Z" fill="url(#paint4_linear_180_71)"/>
<path d="M32.5 12.5C32.5 15.2614 30.2614 17.5 27.5 17.5C24.7386 17.5 22.5 15.2614 22.5 12.5C22.5 9.73858 24.7386 7.5 27.5 7.5C30.2614 7.5 32.5 9.73858 32.5 12.5ZM25 12.5C25 13.8807 26.1193 15 27.5 15C28.8807 15 30 13.8807 30 12.5C30 11.1193 28.8807 10 27.5 10C26.1193 10 25 11.1193 25 12.5Z" fill="url(#paint5_linear_180_71)"/>
<path d="M22.5 12.5H25V16.25C25 16.9404 24.4404 17.5 23.75 17.5C23.0596 17.5 22.5 16.9404 22.5 16.25V12.5Z" fill="url(#paint6_linear_180_71)"/>
<path d="M25 12.5C25 11.8434 24.8707 11.1932 24.6194 10.5866C24.3681 9.97995 23.9998 9.42876 23.5355 8.96447C23.0712 8.50017 22.52 8.13188 21.9134 7.8806C21.3068 7.62933 20.6566 7.5 20 7.5C19.3434 7.5 18.6932 7.62933 18.0866 7.8806C17.48 8.13188 16.9288 8.50017 16.4645 8.96447C16.0002 9.42876 15.6319 9.97996 15.3806 10.5866C15.1293 11.1932 15 11.8434 15 12.5H17.5C17.5 12.1717 17.5647 11.8466 17.6903 11.5433C17.8159 11.24 18.0001 10.9644 18.2322 10.7322C18.4644 10.5001 18.74 10.3159 19.0433 10.1903C19.3466 10.0647 19.6717 10 20 10C20.3283 10 20.6534 10.0647 20.9567 10.1903C21.26 10.3159 21.5356 10.5001 21.7678 10.7322C21.9999 10.9644 22.1841 11.24 22.3097 11.5433C22.4353 11.8466 22.5 12.1717 22.5 12.5H25Z" fill="url(#paint7_linear_180_71)"/>
<path d="M17.5 16.25C17.5 16.9404 16.9404 17.5 16.25 17.5C15.5596 17.5 15 16.9404 15 16.25V8.75C15 8.05964 15.5596 7.5 16.25 7.5C16.9404 7.5 17.5 8.05964 17.5 8.75V16.25Z" fill="url(#paint8_linear_180_71)"/>
<path d="M7.5 12.5C7.5 13.1566 7.62933 13.8068 7.8806 14.4134C8.13188 15.02 8.50017 15.5712 8.96447 16.0355C9.42876 16.4998 9.97995 16.8681 10.5866 17.1194C11.1932 17.3707 11.8434 17.5 12.5 17.5C13.1566 17.5 13.8068 17.3707 14.4134 17.1194C15.02 16.8681 15.5712 16.4998 16.0355 16.0355C16.4998 15.5712 16.8681 15.02 17.1194 14.4134C17.3707 13.8068 17.5 13.1566 17.5 12.5H15C15 12.8283 14.9353 13.1534 14.8097 13.4567C14.6841 13.76 14.4999 14.0356 14.2678 14.2678C14.0356 14.4999 13.76 14.6841 13.4567 14.8097C13.1534 14.9353 12.8283 15 12.5 15C12.1717 15 11.8466 14.9353 11.5433 14.8097C11.24 14.6841 10.9644 14.4999 10.7322 14.2678C10.5001 14.0356 10.3159 13.76 10.1903 13.4567C10.0647 13.1534 10 12.8283 10 12.5H7.5Z" fill="url(#paint9_linear_180_71)"/>
<path d="M7.5 8.75C7.5 8.05964 8.05964 7.5 8.75 7.5C9.44036 7.5 10 8.05964 10 8.75V12.5H7.5V8.75Z" fill="url(#paint10_linear_180_71)"/>
<path d="M0 1.25C0 0.559644 0.559644 0 1.25 0C1.94036 0 2.5 0.559644 2.5 1.25V12.5H0V1.25Z" fill="url(#paint11_linear_180_71)"/>
<path d="M0 12.5C0 13.1566 0.129329 13.8068 0.380602 14.4134C0.631876 15.02 1.00017 15.5712 1.46447 16.0355C1.92876 16.4998 2.47995 16.8681 3.08658 17.1194C3.69321 17.3707 4.34339 17.5 5 17.5C5.65661 17.5 6.30679 17.3707 6.91342 17.1194C7.52004 16.8681 8.07124 16.4998 8.53553 16.0355C8.99983 15.5712 9.36812 15.02 9.6194 14.4134C9.87067 13.8068 10 13.1566 10 12.5H7.5C7.5 12.8283 7.43534 13.1534 7.3097 13.4567C7.18406 13.76 6.99991 14.0356 6.76777 14.2678C6.53562 14.4999 6.26002 14.6841 5.95671 14.8097C5.65339 14.9353 5.3283 15 5 15C4.6717 15 4.34661 14.9353 4.04329 14.8097C3.73998 14.6841 3.46438 14.4999 3.23223 14.2678C3.00009 14.0356 2.81594 13.76 2.6903 13.4567C2.56466 13.1534 2.5 12.8283 2.5 12.5H0Z" fill="url(#paint12_linear_180_71)"/>
<path d="M8.75 6.5C9.44036 6.5 10 5.94036 10 5.25C10 4.55964 9.44036 4 8.75 4C8.05964 4 7.5 4.55964 7.5 5.25C7.5 5.94036 8.05964 6.5 8.75 6.5Z" fill="url(#paint13_linear_180_71)"/>
<path d="M56.309 13.0767C55.8208 12.5885 55.8208 11.797 56.309 11.3089C56.7971 10.8207 57.5886 10.8207 58.0768 11.3089L61.6123 14.8444C62.1004 15.3326 62.1004 16.124 61.6123 16.6122C61.1241 17.1003 60.3327 17.1003 59.8445 16.6122L56.309 13.0767Z" fill="url(#paint14_linear_180_71)"/>
<path d="M45 8.75C45 3.91751 48.9175 0 53.75 0C58.5825 0 62.5 3.91751 62.5 8.75C62.5 13.5825 58.5825 17.5 53.75 17.5C48.9175 17.5 45 13.5825 45 8.75ZM59.9625 8.75C59.9625 5.31893 57.1811 2.5375 53.75 2.5375C50.3189 2.5375 47.5375 5.31893 47.5375 8.75C47.5375 12.1811 50.3189 14.9625 53.75 14.9625C57.1811 14.9625 59.9625 12.1811 59.9625 8.75Z" fill="url(#paint15_linear_180_71)"/>
<path d="M38.75 6.5C39.4404 6.5 40 5.94036 40 5.25C40 4.55964 39.4404 4 38.75 4C38.0596 4 37.5 4.55964 37.5 5.25C37.5 5.94036 38.0596 6.5 38.75 6.5Z" fill="url(#paint16_linear_180_71)"/>
</g>
<defs>
<linearGradient id="paint0_linear_180_71" x1="38.75" y1="17.5" x2="38.75" y2="11.7857" gradientUnits="userSpaceOnUse">
<stop stop-color="#0EA5E9"/>
<stop offset="1" stop-color="#1D4ED8"/>
</linearGradient>
<linearGradient id="paint1_linear_180_71" x1="38.75" y1="17.5" x2="38.75" y2="11.7857" gradientUnits="userSpaceOnUse">
<stop stop-color="#0EA5E9"/>
<stop offset="1" stop-color="#1D4ED8"/>
</linearGradient>
<linearGradient id="paint2_linear_180_71" x1="38.75" y1="17.5" x2="38.75" y2="11.7857" gradientUnits="userSpaceOnUse">
<stop stop-color="#0EA5E9"/>
<stop offset="1" stop-color="#1D4ED8"/>
</linearGradient>
<linearGradient id="paint3_linear_180_71" x1="38.75" y1="17.5" x2="38.75" y2="11.7857" gradientUnits="userSpaceOnUse">
<stop stop-color="#0EA5E9"/>
<stop offset="1" stop-color="#1D4ED8"/>
</linearGradient>
<linearGradient id="paint4_linear_180_71" x1="27.5" y1="25" x2="27.5" y2="15" gradientUnits="userSpaceOnUse">
<stop stop-color="#0EA5E9"/>
<stop offset="1" stop-color="#1D4ED8"/>
</linearGradient>
<linearGradient id="paint5_linear_180_71" x1="27.5" y1="25" x2="27.5" y2="15" gradientUnits="userSpaceOnUse">
<stop stop-color="#0EA5E9"/>
<stop offset="1" stop-color="#1D4ED8"/>
</linearGradient>
<linearGradient id="paint6_linear_180_71" x1="20" y1="17.5" x2="20" y2="11.7857" gradientUnits="userSpaceOnUse">
<stop stop-color="#0EA5E9"/>
<stop offset="1" stop-color="#1D4ED8"/>
</linearGradient>
<linearGradient id="paint7_linear_180_71" x1="20" y1="17.5" x2="20" y2="11.7857" gradientUnits="userSpaceOnUse">
<stop stop-color="#0EA5E9"/>
<stop offset="1" stop-color="#1D4ED8"/>
</linearGradient>
<linearGradient id="paint8_linear_180_71" x1="12.5" y1="17.5" x2="12.5" y2="11.7857" gradientUnits="userSpaceOnUse">
<stop stop-color="#0EA5E9"/>
<stop offset="1" stop-color="#1D4ED8"/>
</linearGradient>
<linearGradient id="paint9_linear_180_71" x1="12.5" y1="17.5" x2="12.5" y2="11.7857" gradientUnits="userSpaceOnUse">
<stop stop-color="#0EA5E9"/>
<stop offset="1" stop-color="#1D4ED8"/>
</linearGradient>
<linearGradient id="paint10_linear_180_71" x1="5" y1="17.5" x2="5" y2="7.5" gradientUnits="userSpaceOnUse">
<stop stop-color="#0EA5E9"/>
<stop offset="1" stop-color="#1D4ED8"/>
</linearGradient>
<linearGradient id="paint11_linear_180_71" x1="5" y1="17.5" x2="5" y2="7.5" gradientUnits="userSpaceOnUse">
<stop stop-color="#0EA5E9"/>
<stop offset="1" stop-color="#1D4ED8"/>
</linearGradient>
<linearGradient id="paint12_linear_180_71" x1="5" y1="17.5" x2="5" y2="7.5" gradientUnits="userSpaceOnUse">
<stop stop-color="#0EA5E9"/>
<stop offset="1" stop-color="#1D4ED8"/>
</linearGradient>
<linearGradient id="paint13_linear_180_71" x1="8.75" y1="6.5" x2="8.75" y2="5.07143" gradientUnits="userSpaceOnUse">
<stop stop-color="#0EA5E9"/>
<stop offset="1" stop-color="#1D4ED8"/>
</linearGradient>
<linearGradient id="paint14_linear_180_71" x1="61.6123" y1="16.6122" x2="58.5818" y2="13.5817" gradientUnits="userSpaceOnUse">
<stop stop-color="#0EA5E9"/>
<stop offset="1" stop-color="#1D4ED8"/>
</linearGradient>
<linearGradient id="paint15_linear_180_71" x1="53.75" y1="17.5" x2="53.75" y2="0" gradientUnits="userSpaceOnUse">
<stop stop-color="#F59E0B"/>
<stop offset="1" stop-color="#F9F871"/>
</linearGradient>
<linearGradient id="paint16_linear_180_71" x1="38.75" y1="6.5" x2="38.75" y2="5.07143" gradientUnits="userSpaceOnUse">
<stop stop-color="#0EA5E9"/>
<stop offset="1" stop-color="#1D4ED8"/>
</linearGradient>
<clipPath id="clip0_180_71">
<rect width="62.5" height="25" fill="white"/>
</clipPath>
</defs>
</svg>
